<svg xmlns="http://www.w3.org/2000/svg" viewBox="0 0 100 32" width="100" height="32">
  <g fill="#1434CB">
    <path d="M38.5 3.5 L28.9 26.5 L22.6 26.5 L17.4 8.7 C17.1 7.4 16.5 6.9 15.4 6.3 C13.5 5.3 10.3 4.4 7 3.7 L7.2 2.7 L17.8 2.7 C19.2 2.7 20.4 3.7 20.7 5.3 L23.3 19.1 L29.5 2.7 L36.2 2.7 C37.6 2.7 38.2 3.1 38.5 3.5 Z"/>
    <path d="M48.8 2.7 L43.5 26.5 L37.5 26.5 L42.8 2.7 L48.8 2.7 Z"/>
    <path d="M68.5 12.8 C68.5 7.9 61.8 7.7 61.9 5.5 C61.9 4.8 62.6 4.1 64 3.9 C64.7 3.8 66.8 3.7 69.1 4.8 L70.2 0.8 C68.7 0.3 66.8 0 64.5 0 C56.6 0 51.1 4.2 51 10.2 C50.9 14.6 54.8 17.1 57.8 18.6 C60.9 20.1 61.9 21.1 61.9 22.4 C61.8 24.4 59.5 25.3 57.4 25.3 C53.4 25.3 51.1 24.1 49.3 23.3 L48.2 27.5 C50.1 28.4 53.6 29.2 57.2 29.2 C65.6 29.2 71.1 25.1 71.2 18.8 C71.2 15.6 69.2 13.9 68.5 12.8 Z"/>
    <path d="M91.8 2.7 L82.5 26.5 L76.8 26.5 L73.1 8.7 C72.8 7.4 72.3 6.9 71.3 6.3 C69.9 5.5 67.5 4.8 64.9 4.2 L65.1 3.2 L74.9 3.2 C76.3 3.2 77.5 4.2 77.8 5.8 L79.9 16.9 L85.9 2.7 L91.8 2.7 Z"/>
  </g>
  <!-- Visa Gold wing accent on V -->
  <path d="M17.4 8.7 C17.1 7.4 16.5 6.9 15.4 6.3 C13.5 5.3 10.3 4.4 7 3.7 L7.2 2.7 L17.8 2.7 C19.2 2.7 20.4 3.7 20.7 5.3 L17.4 8.7 Z" fill="#F7B600"/>
</svg>
